<svg xmlns="http://www.w3.org/2000/svg" width="128" height="128" viewBox="0 0 128 128"><ellipse cx="64" cy="64" rx="59" ry="59" fill="#352c4d" stroke="#c3ccd9" stroke-width="3"/><ellipse cx="64" cy="64" rx="52" ry="52" fill="none" stroke="#e3e8f4" stroke-width="1"/><g transform="rotate(-22 64 64)"><ellipse cx="64" cy="64" rx="40" ry="26" fill="none" stroke="#9edfea" stroke-width="7"/><path d="M27.0 45.0 L29.72 54.28 L39.0 57.0 L29.72 59.72 L27.0 69.0 L24.28 59.72 L15.0 57.0 L24.28 54.28 Z" fill="#e3e8f4" stroke="#d2ac64" stroke-width="2" stroke-linecap="round" stroke-linejoin="round"/><path d="M86.0 29.0 L88.94 39.06 L99.0 42.0 L88.94 44.94 L86.0 55.0 L83.06 44.94 L73.0 42.0 L83.06 39.06 Z" fill="#e3e8f4" stroke="#d2ac64" stroke-width="2" stroke-linecap="round" stroke-linejoin="round"/><path d="M80.0 75.0 L82.94 85.06 L93.0 88.0 L82.94 90.94 L80.0 101.0 L77.06 90.94 L67.0 88.0 L77.06 85.06 Z" fill="#e3e8f4" stroke="#d2ac64" stroke-width="2" stroke-linecap="round" stroke-linejoin="round"/></g></svg>