<svg xmlns="http://www.w3.org/2000/svg" width="128" height="128" viewBox="0 0 128 128"><ellipse cx="64" cy="64" rx="59" ry="59" fill="#352c4d" stroke="#c3ccd9" stroke-width="3"/><ellipse cx="64" cy="64" rx="52" ry="52" fill="none" stroke="#e3e8f4" stroke-width="1"/><ellipse cx="64" cy="82" rx="41" ry="22" fill="none" stroke="#9edfea" stroke-width="5"/><ellipse cx="64" cy="82" rx="29" ry="14" fill="none" stroke="#c3ccd9" stroke-width="4"/><path d="M29 75 L29 45 M64 65 L64 31 M99 75 L99 45" fill="none" stroke="#c3ccd9" stroke-width="4" stroke-linecap="round" stroke-linejoin="round"/><path d="M29.0 27.0 L31.94 37.06 L42.0 40.0 L31.94 42.94 L29.0 53.0 L26.06 42.94 L16.0 40.0 L26.06 37.06 Z" fill="#e3e8f4" stroke="#d2ac64" stroke-width="2" stroke-linecap="round" stroke-linejoin="round"/><path d="M64.0 11.0 L67.85 24.15 L81.0 28.0 L67.85 31.85 L64.0 45.0 L60.15 31.85 L47.0 28.0 L60.15 24.15 Z" fill="#9edfea" stroke="#d2ac64" stroke-width="2" stroke-linecap="round" stroke-linejoin="round"/><path d="M99.0 27.0 L101.94 37.06 L112.0 40.0 L101.94 42.94 L99.0 53.0 L96.06 42.94 L86.0 40.0 L96.06 37.06 Z" fill="#e3e8f4" stroke="#d2ac64" stroke-width="2" stroke-linecap="round" stroke-linejoin="round"/><path d="M64.0 71.0 L66.49 79.51 L75.0 82.0 L66.49 84.49 L64.0 93.0 L61.51 84.49 L53.0 82.0 L61.51 79.51 Z" fill="#e3e8f4" stroke="#d2ac64" stroke-width="2" stroke-linecap="round" stroke-linejoin="round"/></svg>